<mxfile host="65bd71144e">
    <diagram id="8FigmiwcmEEwuoJ9b6Uf" name="第 1 页">
        <mxGraphModel dx="5087" dy="4864" grid="1" gridSize="10" guides="1" tooltips="1" connect="1" arrows="1" fold="1" page="1" pageScale="1" pageWidth="2339" pageHeight="3300" math="0" shadow="0">
            <root>
                <mxCell id="0"/>
                <mxCell id="1" parent="0"/>
                <mxCell id="ZG86Xn-Z0b_mcwdu3kXU-27" value="&#10;&#10;&lt;span style=&quot;color: rgb(0, 0, 0); font-family: helvetica; font-size: 44px; font-style: normal; font-weight: 400; letter-spacing: normal; text-align: center; text-indent: 0px; text-transform: none; word-spacing: 0px; background-color: rgb(248, 249, 250); display: inline; float: none;&quot;&gt;Netty&lt;/span&gt;&#10;&#10;" style="group;labelBackgroundColor=default;" vertex="1" connectable="0" parent="1">
                    <mxGeometry x="-330" y="1560" width="1490" height="460" as="geometry"/>
                </mxCell>
                <mxCell id="15" value="" style="rounded=1;whiteSpace=wrap;html=1;fillColor=#dae8fc;strokeColor=#6c8ebf;fontSize=27;" parent="ZG86Xn-Z0b_mcwdu3kXU-27" vertex="1">
                    <mxGeometry width="1490" height="400" as="geometry"/>
                </mxCell>
                <mxCell id="16" value="&lt;font style=&quot;font-size: 27px;&quot;&gt;Transport&lt;/font&gt;" style="text;html=1;align=center;verticalAlign=middle;resizable=0;points=[];autosize=1;strokeColor=none;fillColor=none;fontStyle=0;fontSize=27;" parent="ZG86Xn-Z0b_mcwdu3kXU-27" vertex="1">
                    <mxGeometry x="25" y="150" width="130" height="40" as="geometry"/>
                </mxCell>
                <mxCell id="17" value="" style="rounded=1;whiteSpace=wrap;html=1;fillColor=#d5e8d4;strokeColor=#82b366;fontSize=27;" parent="ZG86Xn-Z0b_mcwdu3kXU-27" vertex="1">
                    <mxGeometry x="160" y="10" width="480" height="390" as="geometry"/>
                </mxCell>
                <mxCell id="ZG86Xn-Z0b_mcwdu3kXU-66" value="&lt;b&gt;Netty&lt;/b&gt;" style="text;html=1;align=center;verticalAlign=middle;resizable=0;points=[];autosize=1;strokeColor=none;fillColor=none;fontSize=44;" vertex="1" parent="ZG86Xn-Z0b_mcwdu3kXU-27">
                    <mxGeometry x="165" y="50" width="130" height="60" as="geometry"/>
                </mxCell>
                <mxCell id="ZG86Xn-Z0b_mcwdu3kXU-74" value="" style="rounded=1;whiteSpace=wrap;html=1;fillColor=#d5e8d4;strokeColor=#82b366;fontSize=27;" vertex="1" parent="ZG86Xn-Z0b_mcwdu3kXU-27">
                    <mxGeometry x="940" y="5" width="480" height="390" as="geometry"/>
                </mxCell>
                <mxCell id="ZG86Xn-Z0b_mcwdu3kXU-75" value="" style="rounded=1;whiteSpace=wrap;html=1;fontSize=44;fillColor=#fff2cc;strokeColor=#d6b656;" vertex="1" parent="ZG86Xn-Z0b_mcwdu3kXU-27">
                    <mxGeometry x="1000" y="250" width="410" height="50" as="geometry"/>
                </mxCell>
                <mxCell id="ZG86Xn-Z0b_mcwdu3kXU-76" value="&lt;font style=&quot;font-size: 33px&quot;&gt;NettyClientHandler&lt;/font&gt;" style="text;html=1;align=center;verticalAlign=middle;resizable=0;points=[];autosize=1;strokeColor=none;fillColor=none;fontSize=44;" vertex="1" parent="ZG86Xn-Z0b_mcwdu3kXU-27">
                    <mxGeometry x="1059.9960784313726" y="244.99846153846147" width="290" height="60" as="geometry"/>
                </mxCell>
                <mxCell id="ZG86Xn-Z0b_mcwdu3kXU-83" value="&lt;font style=&quot;font-size: 33px&quot;&gt;Decoder&lt;/font&gt;" style="rounded=1;whiteSpace=wrap;html=1;fontSize=44;fillColor=#fff2cc;strokeColor=#d6b656;" vertex="1" parent="ZG86Xn-Z0b_mcwdu3kXU-27">
                    <mxGeometry x="210" y="110" width="410" height="50" as="geometry"/>
                </mxCell>
                <mxCell id="ZG86Xn-Z0b_mcwdu3kXU-79" value="" style="group" vertex="1" connectable="0" parent="ZG86Xn-Z0b_mcwdu3kXU-27">
                    <mxGeometry x="1000" y="96.53999999999996" width="410" height="63.46153846153846" as="geometry"/>
                </mxCell>
                <mxCell id="ZG86Xn-Z0b_mcwdu3kXU-80" value="&lt;font style=&quot;font-size: 33px&quot;&gt;Decoder&lt;/font&gt;" style="rounded=1;whiteSpace=wrap;html=1;fontSize=44;fillColor=#fff2cc;strokeColor=#d6b656;" vertex="1" parent="ZG86Xn-Z0b_mcwdu3kXU-79">
                    <mxGeometry width="410" height="50" as="geometry"/>
                </mxCell>
                <mxCell id="ZG86Xn-Z0b_mcwdu3kXU-81" value="" style="group" vertex="1" connectable="0" parent="ZG86Xn-Z0b_mcwdu3kXU-27">
                    <mxGeometry x="210" y="160" width="410" height="100" as="geometry"/>
                </mxCell>
                <mxCell id="ZG86Xn-Z0b_mcwdu3kXU-82" value="&lt;font style=&quot;font-size: 33px&quot;&gt;Encoder&lt;/font&gt;" style="rounded=1;whiteSpace=wrap;html=1;fontSize=44;fillColor=#fff2cc;strokeColor=#d6b656;" vertex="1" parent="ZG86Xn-Z0b_mcwdu3kXU-81">
                    <mxGeometry width="410" height="50" as="geometry"/>
                </mxCell>
                <mxCell id="ZG86Xn-Z0b_mcwdu3kXU-107" value="&lt;span style=&quot;font-size: 33px&quot;&gt;IdleStateHandler&lt;/span&gt;" style="rounded=1;whiteSpace=wrap;html=1;fontSize=44;fillColor=#fff2cc;strokeColor=#d6b656;" vertex="1" parent="ZG86Xn-Z0b_mcwdu3kXU-81">
                    <mxGeometry y="50" width="410" height="50" as="geometry"/>
                </mxCell>
                <mxCell id="ZG86Xn-Z0b_mcwdu3kXU-86" value="&lt;font style=&quot;font-size: 33px&quot;&gt;Encoder&lt;/font&gt;" style="rounded=1;whiteSpace=wrap;html=1;fontSize=44;fillColor=#fff2cc;strokeColor=#d6b656;" vertex="1" parent="ZG86Xn-Z0b_mcwdu3kXU-27">
                    <mxGeometry x="1000" y="150" width="410" height="50" as="geometry"/>
                </mxCell>
                <mxCell id="ZG86Xn-Z0b_mcwdu3kXU-108" value="&lt;span style=&quot;font-size: 33px&quot;&gt;IdleStateHandler&lt;/span&gt;" style="rounded=1;whiteSpace=wrap;html=1;fontSize=44;fillColor=#fff2cc;strokeColor=#d6b656;" vertex="1" parent="ZG86Xn-Z0b_mcwdu3kXU-27">
                    <mxGeometry x="1000" y="200" width="410" height="50" as="geometry"/>
                </mxCell>
                <mxCell id="ZG86Xn-Z0b_mcwdu3kXU-67" value="&lt;font style=&quot;font-size: 33px&quot;&gt;NettyServerHandler&lt;/font&gt;" style="rounded=1;whiteSpace=wrap;html=1;fontSize=44;fillColor=#fff2cc;strokeColor=#d6b656;" vertex="1" parent="ZG86Xn-Z0b_mcwdu3kXU-27">
                    <mxGeometry x="210" y="260" width="410" height="50" as="geometry"/>
                </mxCell>
                <mxCell id="ZG86Xn-Z0b_mcwdu3kXU-110" value="Netty" style="text;html=1;align=center;verticalAlign=middle;resizable=0;points=[];autosize=1;strokeColor=none;fillColor=none;fontSize=44;fontStyle=1" vertex="1" parent="ZG86Xn-Z0b_mcwdu3kXU-27">
                    <mxGeometry x="950" y="35" width="130" height="60" as="geometry"/>
                </mxCell>
                <mxCell id="ZG86Xn-Z0b_mcwdu3kXU-114" value="" style="shape=flexArrow;endArrow=classic;startArrow=classic;html=1;fontSize=44;entryX=0;entryY=0.5;entryDx=0;entryDy=0;startWidth=28;startSize=6.2;endWidth=28;endSize=11;fillColor=#e1d5e7;strokeColor=#9673a6;" edge="1" parent="ZG86Xn-Z0b_mcwdu3kXU-27" target="ZG86Xn-Z0b_mcwdu3kXU-108">
                    <mxGeometry width="100" height="100" relative="1" as="geometry">
                        <mxPoint x="610" y="225" as="sourcePoint"/>
                        <mxPoint x="820" y="160" as="targetPoint"/>
                    </mxGeometry>
                </mxCell>
                <mxCell id="ZG86Xn-Z0b_mcwdu3kXU-32" value="" style="endArrow=classic;startArrow=classic;html=1;fontSize=28;exitX=0.274;exitY=0;exitDx=0;exitDy=0;exitPerimeter=0;horizontal=0;fontStyle=1;entryX=0.5;entryY=1;entryDx=0;entryDy=0;" edge="1" parent="1" source="15" target="ZG86Xn-Z0b_mcwdu3kXU-25">
                    <mxGeometry width="50" height="50" relative="1" as="geometry">
                        <mxPoint x="900" y="440" as="sourcePoint"/>
                        <mxPoint x="1490" y="510" as="targetPoint"/>
                    </mxGeometry>
                </mxCell>
                <mxCell id="ZG86Xn-Z0b_mcwdu3kXU-35" value="" style="group" vertex="1" connectable="0" parent="1">
                    <mxGeometry x="-320" y="-20" width="1360" height="320" as="geometry"/>
                </mxCell>
                <mxCell id="9" value="" style="rounded=1;whiteSpace=wrap;html=1;fillColor=#dae8fc;strokeColor=#6c8ebf;fontSize=27;" parent="ZG86Xn-Z0b_mcwdu3kXU-35" vertex="1">
                    <mxGeometry width="1360" height="320" as="geometry"/>
                </mxCell>
                <mxCell id="10" value="Register" style="text;html=1;align=center;verticalAlign=middle;resizable=0;points=[];autosize=1;strokeColor=none;fillColor=none;fontSize=27;" parent="ZG86Xn-Z0b_mcwdu3kXU-35" vertex="1">
                    <mxGeometry x="38.490566037735846" y="140" width="120" height="40" as="geometry"/>
                </mxCell>
                <mxCell id="11" value="Nacos" style="rounded=1;whiteSpace=wrap;html=1;fillColor=#f8cecc;strokeColor=#b85450;fontSize=27;" parent="ZG86Xn-Z0b_mcwdu3kXU-35" vertex="1">
                    <mxGeometry x="230.94339622641508" y="30" width="320.75471698113205" height="260" as="geometry"/>
                </mxCell>
                <mxCell id="ZG86Xn-Z0b_mcwdu3kXU-48" style="edgeStyle=none;html=1;exitX=1;exitY=0.5;exitDx=0;exitDy=0;fontSize=40;" edge="1" parent="ZG86Xn-Z0b_mcwdu3kXU-35" source="VKijr14NrgcjzAirz4EU-20" target="ZG86Xn-Z0b_mcwdu3kXU-45">
                    <mxGeometry relative="1" as="geometry"/>
                </mxCell>
                <mxCell id="VKijr14NrgcjzAirz4EU-20" value="&lt;font style=&quot;font-size: 16px&quot;&gt;Registry&lt;/font&gt;" style="rounded=1;whiteSpace=wrap;html=1;fillColor=#fff2cc;strokeColor=#d6b656;" parent="ZG86Xn-Z0b_mcwdu3kXU-35" vertex="1">
                    <mxGeometry x="667.1698113207547" y="30" width="153.96226415094338" height="120" as="geometry"/>
                </mxCell>
                <mxCell id="VKijr14NrgcjzAirz4EU-21" value="&lt;span style=&quot;font-size: 16px&quot;&gt;Subscribe&lt;/span&gt;" style="rounded=1;whiteSpace=wrap;html=1;fillColor=#fff2cc;strokeColor=#d6b656;" parent="ZG86Xn-Z0b_mcwdu3kXU-35" vertex="1">
                    <mxGeometry x="667.1698113207547" y="170" width="153.96226415094338" height="120" as="geometry"/>
                </mxCell>
                <mxCell id="ZG86Xn-Z0b_mcwdu3kXU-47" value="" style="group" vertex="1" connectable="0" parent="ZG86Xn-Z0b_mcwdu3kXU-35">
                    <mxGeometry x="950" y="30" width="260" height="190" as="geometry"/>
                </mxCell>
                <mxCell id="ZG86Xn-Z0b_mcwdu3kXU-45" value="" style="rounded=1;whiteSpace=wrap;html=1;fontSize=28;fillColor=#d5e8d4;strokeColor=#82b366;" vertex="1" parent="ZG86Xn-Z0b_mcwdu3kXU-47">
                    <mxGeometry width="260" height="190" as="geometry"/>
                </mxCell>
                <mxCell id="ZG86Xn-Z0b_mcwdu3kXU-46" value="&lt;font style=&quot;font-size: 26px&quot;&gt;IP&lt;br&gt;PORT&lt;/font&gt;" style="text;html=1;align=center;verticalAlign=middle;resizable=0;points=[];autosize=1;strokeColor=none;fillColor=none;fontSize=28;" vertex="1" parent="ZG86Xn-Z0b_mcwdu3kXU-47">
                    <mxGeometry x="20" y="100" width="90" height="70" as="geometry"/>
                </mxCell>
                <mxCell id="ZG86Xn-Z0b_mcwdu3kXU-49" value="&lt;font style=&quot;font-size: 40px&quot;&gt;Instance&lt;/font&gt;" style="text;html=1;align=center;verticalAlign=middle;resizable=0;points=[];autosize=1;strokeColor=none;fillColor=none;fontSize=26;fontStyle=1" vertex="1" parent="ZG86Xn-Z0b_mcwdu3kXU-47">
                    <mxGeometry x="15" y="20" width="180" height="40" as="geometry"/>
                </mxCell>
                <mxCell id="ZG86Xn-Z0b_mcwdu3kXU-39" value="" style="group" vertex="1" connectable="0" parent="1">
                    <mxGeometry x="-1140" y="530" width="1120" height="350" as="geometry"/>
                </mxCell>
                <mxCell id="ZG86Xn-Z0b_mcwdu3kXU-20" value="" style="rounded=1;whiteSpace=wrap;html=1;fillColor=#dae8fc;strokeColor=#6c8ebf;fontSize=27;" vertex="1" parent="ZG86Xn-Z0b_mcwdu3kXU-39">
                    <mxGeometry x="-10" y="-10" width="1120" height="350" as="geometry"/>
                </mxCell>
                <mxCell id="ZG86Xn-Z0b_mcwdu3kXU-21" value="Server" style="text;html=1;align=center;verticalAlign=middle;resizable=0;points=[];autosize=1;strokeColor=none;fillColor=none;fontSize=40;" vertex="1" parent="ZG86Xn-Z0b_mcwdu3kXU-39">
                    <mxGeometry x="60" y="40" width="130" height="50" as="geometry"/>
                </mxCell>
                <mxCell id="ZG86Xn-Z0b_mcwdu3kXU-23" value="" style="rounded=1;whiteSpace=wrap;html=1;fillColor=#d5e8d4;strokeColor=#82b366;fontSize=27;" vertex="1" parent="ZG86Xn-Z0b_mcwdu3kXU-39">
                    <mxGeometry x="220" y="20" width="250" height="320" as="geometry"/>
                </mxCell>
                <mxCell id="ZG86Xn-Z0b_mcwdu3kXU-22" value="&lt;b style=&quot;font-size: 24px;&quot;&gt;RpcResponseInvoke&lt;/b&gt;" style="text;html=1;align=center;verticalAlign=middle;resizable=0;points=[];autosize=1;strokeColor=none;fillColor=none;fontSize=24;" vertex="1" parent="ZG86Xn-Z0b_mcwdu3kXU-39">
                    <mxGeometry x="220" y="60" width="250" height="30" as="geometry"/>
                </mxCell>
                <mxCell id="ZG86Xn-Z0b_mcwdu3kXU-24" value="&lt;span style=&quot;font-size: 16px&quot;&gt;Service&lt;/span&gt;" style="rounded=1;whiteSpace=wrap;html=1;fillColor=#fff2cc;strokeColor=#d6b656;" vertex="1" parent="ZG86Xn-Z0b_mcwdu3kXU-39">
                    <mxGeometry x="240" y="120" width="120" height="60" as="geometry"/>
                </mxCell>
                <mxCell id="ZG86Xn-Z0b_mcwdu3kXU-25" value="&lt;span style=&quot;font-size: 16px&quot;&gt;Service&lt;/span&gt;" style="rounded=1;whiteSpace=wrap;html=1;fillColor=#fff2cc;strokeColor=#d6b656;" vertex="1" parent="ZG86Xn-Z0b_mcwdu3kXU-39">
                    <mxGeometry x="230" y="200" width="120" height="60" as="geometry"/>
                </mxCell>
                <mxCell id="ZG86Xn-Z0b_mcwdu3kXU-26" value="&lt;span style=&quot;font-size: 16px&quot;&gt;Service&lt;/span&gt;" style="rounded=1;whiteSpace=wrap;html=1;fillColor=#fff2cc;strokeColor=#d6b656;" vertex="1" parent="ZG86Xn-Z0b_mcwdu3kXU-39">
                    <mxGeometry x="340" y="180" width="120" height="60" as="geometry"/>
                </mxCell>
                <mxCell id="ZG86Xn-Z0b_mcwdu3kXU-33" value="" style="rounded=1;whiteSpace=wrap;html=1;fontSize=28;fillColor=#d5e8d4;strokeColor=#82b366;" vertex="1" parent="ZG86Xn-Z0b_mcwdu3kXU-39">
                    <mxGeometry x="840" y="20" width="260" height="320" as="geometry"/>
                </mxCell>
                <mxCell id="ZG86Xn-Z0b_mcwdu3kXU-34" value="threadPoolExecutor" style="text;html=1;align=center;verticalAlign=middle;resizable=0;points=[];autosize=1;strokeColor=none;fillColor=none;fontSize=28;fontStyle=1" vertex="1" parent="ZG86Xn-Z0b_mcwdu3kXU-39">
                    <mxGeometry x="830" y="45" width="280" height="40" as="geometry"/>
                </mxCell>
                <mxCell id="ZG86Xn-Z0b_mcwdu3kXU-36" value="" style="rounded=1;whiteSpace=wrap;html=1;fontSize=28;fillColor=#d5e8d4;strokeColor=#82b366;" vertex="1" parent="ZG86Xn-Z0b_mcwdu3kXU-39">
                    <mxGeometry x="520" y="20" width="260" height="320" as="geometry"/>
                </mxCell>
                <mxCell id="ZG86Xn-Z0b_mcwdu3kXU-38" value="RpcServerConfig" style="text;html=1;align=center;verticalAlign=middle;resizable=0;points=[];autosize=1;strokeColor=none;fillColor=none;fontSize=28;fontStyle=1" vertex="1" parent="ZG86Xn-Z0b_mcwdu3kXU-39">
                    <mxGeometry x="530" y="50" width="240" height="40" as="geometry"/>
                </mxCell>
                <mxCell id="ZG86Xn-Z0b_mcwdu3kXU-41" value="" style="group" vertex="1" connectable="0" parent="1">
                    <mxGeometry x="1020" y="1140" width="1060" height="160" as="geometry"/>
                </mxCell>
                <mxCell id="2" value="" style="rounded=1;whiteSpace=wrap;html=1;fillColor=#dae8fc;strokeColor=#6c8ebf;fontSize=27;" parent="ZG86Xn-Z0b_mcwdu3kXU-41" vertex="1">
                    <mxGeometry width="1060" height="160" as="geometry"/>
                </mxCell>
                <mxCell id="ZG86Xn-Z0b_mcwdu3kXU-40" value="" style="group" vertex="1" connectable="0" parent="ZG86Xn-Z0b_mcwdu3kXU-41">
                    <mxGeometry x="80" y="15" width="710" height="130" as="geometry"/>
                </mxCell>
                <mxCell id="3" value="Invoker" style="text;html=1;align=center;verticalAlign=middle;resizable=0;points=[];autosize=1;strokeColor=none;fillColor=none;fontSize=27;" parent="ZG86Xn-Z0b_mcwdu3kXU-40" vertex="1">
                    <mxGeometry y="45" width="100" height="40" as="geometry"/>
                </mxCell>
                <mxCell id="4" value="" style="rounded=1;whiteSpace=wrap;html=1;fillColor=#d5e8d4;strokeColor=#82b366;fontSize=27;" parent="ZG86Xn-Z0b_mcwdu3kXU-40" vertex="1">
                    <mxGeometry x="140" width="250" height="130" as="geometry"/>
                </mxCell>
                <mxCell id="5" value="&lt;pre style=&quot;background-color: #2b2b2b ; color: #a9b7c6 ; font-family: &amp;#34;jetbrains mono&amp;#34; , monospace ; font-size: 13.5pt&quot;&gt;&lt;br&gt;&lt;/pre&gt;" style="text;html=1;align=center;verticalAlign=middle;resizable=0;points=[];autosize=1;strokeColor=none;fillColor=none;fontSize=27;" parent="ZG86Xn-Z0b_mcwdu3kXU-40" vertex="1">
                    <mxGeometry x="240" y="30" width="20" height="70" as="geometry"/>
                </mxCell>
                <mxCell id="6" value="LoadBalancer" style="text;html=1;align=center;verticalAlign=middle;resizable=0;points=[];autosize=1;strokeColor=none;fillColor=none;fontSize=27;" parent="ZG86Xn-Z0b_mcwdu3kXU-40" vertex="1">
                    <mxGeometry x="175" y="45" width="180" height="40" as="geometry"/>
                </mxCell>
                <mxCell id="7" value="Cluster" style="rounded=1;whiteSpace=wrap;html=1;fillColor=#d5e8d4;strokeColor=#82b366;fontSize=27;" parent="ZG86Xn-Z0b_mcwdu3kXU-40" vertex="1">
                    <mxGeometry x="460" width="250" height="130" as="geometry"/>
                </mxCell>
                <mxCell id="ZG86Xn-Z0b_mcwdu3kXU-42" value="" style="endArrow=classic;html=1;fontSize=28;exitX=0.609;exitY=0.008;exitDx=0;exitDy=0;exitPerimeter=0;" edge="1" parent="1" source="ZG86Xn-Z0b_mcwdu3kXU-36" target="VKijr14NrgcjzAirz4EU-20">
                    <mxGeometry width="50" height="50" relative="1" as="geometry">
                        <mxPoint x="570" y="560" as="sourcePoint"/>
                        <mxPoint x="620" y="510" as="targetPoint"/>
                    </mxGeometry>
                </mxCell>
                <mxCell id="ZG86Xn-Z0b_mcwdu3kXU-44" value="&lt;b&gt;Invoke&lt;/b&gt;" style="text;html=1;align=center;verticalAlign=middle;resizable=0;points=[];autosize=1;strokeColor=none;fillColor=none;fontSize=28;" vertex="1" parent="1">
                    <mxGeometry x="-450" y="980" width="100" height="40" as="geometry"/>
                </mxCell>
                <mxCell id="ZG86Xn-Z0b_mcwdu3kXU-63" value="" style="rounded=1;whiteSpace=wrap;html=1;fontSize=40;fillColor=#dae8fc;strokeColor=#6c8ebf;" vertex="1" parent="1">
                    <mxGeometry x="1030" y="510" width="1420" height="410" as="geometry"/>
                </mxCell>
                <mxCell id="ZG86Xn-Z0b_mcwdu3kXU-29" value="" style="group;fillColor=#f8cecc;strokeColor=#b85450;" vertex="1" connectable="0" parent="1">
                    <mxGeometry x="1110" y="750" width="1060" height="160" as="geometry"/>
                </mxCell>
                <mxCell id="19" value="" style="rounded=1;whiteSpace=wrap;html=1;fillColor=#f8cecc;strokeColor=#b85450;fontSize=27;" parent="ZG86Xn-Z0b_mcwdu3kXU-29" vertex="1">
                    <mxGeometry width="1060" height="160" as="geometry"/>
                </mxCell>
                <mxCell id="20" value="" style="rounded=1;whiteSpace=wrap;html=1;fillColor=#d5e8d4;strokeColor=#82b366;fontSize=27;" parent="ZG86Xn-Z0b_mcwdu3kXU-29" vertex="1">
                    <mxGeometry x="140" y="10" width="250" height="130" as="geometry"/>
                </mxCell>
                <mxCell id="gRzJjuAhsHButagV2lx1-20" value="&lt;span style=&quot;font-size: 16px&quot;&gt;Client&lt;/span&gt;" style="rounded=1;whiteSpace=wrap;html=1;fillColor=#fff2cc;strokeColor=#d6b656;" parent="ZG86Xn-Z0b_mcwdu3kXU-29" vertex="1">
                    <mxGeometry x="150" y="45" width="85" height="40" as="geometry"/>
                </mxCell>
                <mxCell id="gRzJjuAhsHButagV2lx1-25" value="&lt;span style=&quot;font-size: 16px&quot;&gt;Client&lt;/span&gt;" style="rounded=1;whiteSpace=wrap;html=1;fillColor=#fff2cc;strokeColor=#d6b656;" parent="ZG86Xn-Z0b_mcwdu3kXU-29" vertex="1">
                    <mxGeometry x="252.5" y="45" width="85" height="40" as="geometry"/>
                </mxCell>
                <mxCell id="gRzJjuAhsHButagV2lx1-26" value="&lt;span style=&quot;font-size: 16px&quot;&gt;Client&lt;/span&gt;" style="rounded=1;whiteSpace=wrap;html=1;fillColor=#fff2cc;strokeColor=#d6b656;" parent="ZG86Xn-Z0b_mcwdu3kXU-29" vertex="1">
                    <mxGeometry x="252.5" y="95" width="85" height="40" as="geometry"/>
                </mxCell>
                <mxCell id="gRzJjuAhsHButagV2lx1-27" value="ClientPool" style="text;html=1;align=center;verticalAlign=middle;resizable=0;points=[];autosize=1;strokeColor=none;fillColor=none;fontSize=24;" parent="ZG86Xn-Z0b_mcwdu3kXU-29" vertex="1">
                    <mxGeometry y="15" width="120" height="30" as="geometry"/>
                </mxCell>
                <mxCell id="gRzJjuAhsHButagV2lx1-28" value="&lt;span style=&quot;font-size: 16px&quot;&gt;Client&lt;/span&gt;" style="rounded=1;whiteSpace=wrap;html=1;fillColor=#fff2cc;strokeColor=#d6b656;" parent="ZG86Xn-Z0b_mcwdu3kXU-29" vertex="1">
                    <mxGeometry x="150" y="95" width="85" height="40" as="geometry"/>
                </mxCell>
                <mxCell id="gRzJjuAhsHButagV2lx1-30" value="ClientGroup" style="text;html=1;align=center;verticalAlign=middle;resizable=0;points=[];autosize=1;strokeColor=none;fillColor=none;fontSize=24;" parent="ZG86Xn-Z0b_mcwdu3kXU-29" vertex="1">
                    <mxGeometry x="160" y="10" width="140" height="30" as="geometry"/>
                </mxCell>
                <mxCell id="gRzJjuAhsHButagV2lx1-32" value="" style="rounded=1;whiteSpace=wrap;html=1;fillColor=#d5e8d4;strokeColor=#82b366;fontSize=27;" parent="ZG86Xn-Z0b_mcwdu3kXU-29" vertex="1">
                    <mxGeometry x="445" y="15" width="250" height="130" as="geometry"/>
                </mxCell>
                <mxCell id="gRzJjuAhsHButagV2lx1-33" value="&lt;span style=&quot;font-size: 16px&quot;&gt;Client&lt;/span&gt;" style="rounded=1;whiteSpace=wrap;html=1;fillColor=#fff2cc;strokeColor=#d6b656;" parent="ZG86Xn-Z0b_mcwdu3kXU-29" vertex="1">
                    <mxGeometry x="455" y="50" width="85" height="40" as="geometry"/>
                </mxCell>
                <mxCell id="gRzJjuAhsHButagV2lx1-34" value="&lt;span style=&quot;font-size: 16px&quot;&gt;Client&lt;/span&gt;" style="rounded=1;whiteSpace=wrap;html=1;fillColor=#fff2cc;strokeColor=#d6b656;" parent="ZG86Xn-Z0b_mcwdu3kXU-29" vertex="1">
                    <mxGeometry x="557.5" y="50" width="85" height="40" as="geometry"/>
                </mxCell>
                <mxCell id="gRzJjuAhsHButagV2lx1-35" value="&lt;span style=&quot;font-size: 16px&quot;&gt;Client&lt;/span&gt;" style="rounded=1;whiteSpace=wrap;html=1;fillColor=#fff2cc;strokeColor=#d6b656;" parent="ZG86Xn-Z0b_mcwdu3kXU-29" vertex="1">
                    <mxGeometry x="557.5" y="100" width="85" height="40" as="geometry"/>
                </mxCell>
                <mxCell id="gRzJjuAhsHButagV2lx1-36" value="&lt;span style=&quot;font-size: 16px&quot;&gt;Client&lt;/span&gt;" style="rounded=1;whiteSpace=wrap;html=1;fillColor=#fff2cc;strokeColor=#d6b656;" parent="ZG86Xn-Z0b_mcwdu3kXU-29" vertex="1">
                    <mxGeometry x="455" y="100" width="85" height="40" as="geometry"/>
                </mxCell>
                <mxCell id="gRzJjuAhsHButagV2lx1-37" value="ClientGroup" style="text;html=1;align=center;verticalAlign=middle;resizable=0;points=[];autosize=1;strokeColor=none;fillColor=none;fontSize=24;" parent="ZG86Xn-Z0b_mcwdu3kXU-29" vertex="1">
                    <mxGeometry x="465" y="15" width="140" height="30" as="geometry"/>
                </mxCell>
                <mxCell id="gRzJjuAhsHButagV2lx1-38" value="" style="rounded=1;whiteSpace=wrap;html=1;fillColor=#d5e8d4;strokeColor=#82b366;fontSize=27;" parent="ZG86Xn-Z0b_mcwdu3kXU-29" vertex="1">
                    <mxGeometry x="750" y="15" width="250" height="130" as="geometry"/>
                </mxCell>
                <mxCell id="gRzJjuAhsHButagV2lx1-39" value="&lt;span style=&quot;font-size: 16px&quot;&gt;Client&lt;/span&gt;" style="rounded=1;whiteSpace=wrap;html=1;fillColor=#fff2cc;strokeColor=#d6b656;" parent="ZG86Xn-Z0b_mcwdu3kXU-29" vertex="1">
                    <mxGeometry x="760" y="50" width="85" height="40" as="geometry"/>
                </mxCell>
                <mxCell id="gRzJjuAhsHButagV2lx1-40" value="&lt;span style=&quot;font-size: 16px&quot;&gt;Client&lt;/span&gt;" style="rounded=1;whiteSpace=wrap;html=1;fillColor=#fff2cc;strokeColor=#d6b656;" parent="ZG86Xn-Z0b_mcwdu3kXU-29" vertex="1">
                    <mxGeometry x="862.5" y="50" width="85" height="40" as="geometry"/>
                </mxCell>
                <mxCell id="gRzJjuAhsHButagV2lx1-41" value="&lt;span style=&quot;font-size: 16px&quot;&gt;Client&lt;/span&gt;" style="rounded=1;whiteSpace=wrap;html=1;fillColor=#fff2cc;strokeColor=#d6b656;" parent="ZG86Xn-Z0b_mcwdu3kXU-29" vertex="1">
                    <mxGeometry x="862.5" y="100" width="85" height="40" as="geometry"/>
                </mxCell>
                <mxCell id="gRzJjuAhsHButagV2lx1-42" value="&lt;span style=&quot;font-size: 16px&quot;&gt;Client&lt;/span&gt;" style="rounded=1;whiteSpace=wrap;html=1;fillColor=#fff2cc;strokeColor=#d6b656;" parent="ZG86Xn-Z0b_mcwdu3kXU-29" vertex="1">
                    <mxGeometry x="760" y="100" width="85" height="40" as="geometry"/>
                </mxCell>
                <mxCell id="gRzJjuAhsHButagV2lx1-43" value="ClientGroup" style="text;html=1;align=center;verticalAlign=middle;resizable=0;points=[];autosize=1;strokeColor=none;fillColor=none;fontSize=24;" parent="ZG86Xn-Z0b_mcwdu3kXU-29" vertex="1">
                    <mxGeometry x="770" y="15" width="140" height="30" as="geometry"/>
                </mxCell>
                <mxCell id="ZG86Xn-Z0b_mcwdu3kXU-65" value="Client" style="text;html=1;align=center;verticalAlign=middle;resizable=0;points=[];autosize=1;strokeColor=none;fillColor=none;fontSize=44;fontStyle=1" vertex="1" parent="1">
                    <mxGeometry x="1055" y="540" width="140" height="60" as="geometry"/>
                </mxCell>
                <mxCell id="ZG86Xn-Z0b_mcwdu3kXU-69" value="NettyClientHandler" style="text;html=1;align=center;verticalAlign=middle;resizable=0;points=[];autosize=1;strokeColor=none;fillColor=none;fontSize=44;" vertex="1" parent="1">
                    <mxGeometry x="190" y="850" width="380" height="60" as="geometry"/>
                </mxCell>
            </root>
        </mxGraphModel>
    </diagram>
    <diagram id="qIB11fpt5J0HkmZ4hPW9" name="第 2 页">
        <mxGraphModel dx="1401" dy="769" grid="1" gridSize="10" guides="1" tooltips="1" connect="1" arrows="1" fold="1" page="1" pageScale="1" pageWidth="1654" pageHeight="2336" math="0" shadow="0">
            <root>
                <mxCell id="j5Q0XZBjVO6QCMSjShGf-0"/>
                <mxCell id="j5Q0XZBjVO6QCMSjShGf-1" parent="j5Q0XZBjVO6QCMSjShGf-0"/>
                <mxCell id="j5Q0XZBjVO6QCMSjShGf-2" value="" style="rounded=1;whiteSpace=wrap;html=1;fontSize=27;fillColor=#dae8fc;strokeColor=#6c8ebf;" parent="j5Q0XZBjVO6QCMSjShGf-1" vertex="1">
                    <mxGeometry x="130" y="40" width="840" height="180" as="geometry"/>
                </mxCell>
            </root>
        </mxGraphModel>
    </diagram>
</mxfile>